<svg width="85" height="28" viewBox="0 0 85 28" fill="none" xmlns="http://www.w3.org/2000/svg">
<mask id="path-1-outside-1_2215_7612" maskUnits="userSpaceOnUse" x="0.337769" y="0" width="85" height="28" fill="black">
<rect fill="white" x="0.337769" width="85" height="28"/>
<path fill-rule="evenodd" clip-rule="evenodd" d="M29.8156 2.13742L30.6912 4.81434L31.5685 2.13216C31.6235 1.96646 31.7415 1.6642 32.0153 1.40779C32.329 1.11407 32.7135 1.00026 33.0735 1.00026H43.3234C43.667 1.00026 44.2021 1.11083 44.5584 1.60542C44.5611 1.60962 44.5643 1.61383 44.5671 1.61804C44.6139 1.55508 44.6635 1.49847 44.7131 1.44864C44.9388 1.22171 45.3042 1.0001 45.7695 1.0001H56.0893C56.5542 1.0001 56.92 1.2217 57.1457 1.44863C57.3714 1.6756 57.592 2.04315 57.592 2.5107V24.8115C57.592 25.7366 56.8248 26.3223 56.0893 26.3223H45.7695C45.0336 26.3223 44.2664 25.7366 44.2664 24.8115V4.35653L37.1256 25.2927C36.8884 26.1012 36.1262 26.3224 35.7065 26.3224H25.7385C25.5006 26.3224 25.2074 26.2735 24.9236 26.0983C24.6383 25.9221 24.4647 25.6814 24.361 25.4732L24.3259 25.4027L23.1087 21.8633L21.939 25.2927C21.7018 26.1012 20.9396 26.3224 20.5199 26.3224H10.552C10.314 26.3224 10.0208 26.2735 9.73697 26.0983C9.45166 25.9221 9.27815 25.6814 9.17437 25.4731L9.1393 25.4027L1.43744 3.00641C1.31221 2.65784 1.2462 2.10566 1.60626 1.60541C1.96223 1.11083 2.49741 1.00026 2.84084 1.00026H13.1223C13.4823 1.00026 13.8668 1.11406 14.1805 1.40778C14.4542 1.6642 14.5722 1.96646 14.6273 2.13216L14.629 2.13742L15.5046 4.81434L16.3819 2.13216C16.4369 1.96646 16.555 1.6642 16.8288 1.40778C17.1424 1.11406 17.5269 1.00026 17.8869 1.00026L28.3089 1.00026C28.6689 1.00026 29.0534 1.11407 29.367 1.40779C29.6409 1.6642 29.7588 1.96646 29.8139 2.13216L29.8156 2.13742ZM15.5046 8.64447L13.4985 2.51103C13.4358 2.32231 13.3417 2.1965 13.1223 2.1965H2.84084C2.59008 2.1965 2.46469 2.35376 2.55873 2.60539L10.2385 24.9375C10.3012 25.0633 10.3952 25.1262 10.552 25.1262H20.5199C20.6453 25.1262 20.7707 25.0633 20.8021 24.9375L23.1041 18.1882L25.4251 24.9375C25.4878 25.0633 25.5818 25.1262 25.7385 25.1262H35.7065C35.8319 25.1262 35.9573 25.0633 35.9887 24.9375L43.6059 2.60539C43.6999 2.35376 43.5745 2.1965 43.3234 2.1965H33.0735C32.8541 2.1965 32.76 2.32231 32.6974 2.51103L30.6912 8.64447L28.685 2.51103C28.6224 2.32231 28.5283 2.1965 28.3089 2.1965H17.8869C17.6675 2.1965 17.5734 2.32231 17.5107 2.51103L15.5046 8.64447ZM69.416 24.8308C69.416 24.9904 69.2883 25.1181 69.1284 25.1181H59.6469C59.4874 25.1181 59.3279 24.9904 59.3279 24.8308V2.55567C59.3279 2.30037 59.5195 2.07697 59.9345 2.26845L72.2894 7.94894C72.3528 7.98084 72.4167 8.01278 72.4806 7.98084C72.5444 7.94894 72.5444 7.8532 72.5444 7.8213V2.49184C72.5444 2.33228 72.6722 2.20462 72.832 2.20462H82.3136C82.4731 2.20462 82.6008 2.33228 82.6008 2.49184V24.767C82.6008 25.0223 82.4092 25.2457 82.026 25.0542L69.6715 19.3099C69.6077 19.278 69.5438 19.2461 69.4799 19.278C69.416 19.3099 69.416 19.4056 69.416 19.4376V24.8308ZM70.6061 21.0625V24.8308C70.6061 25.6572 69.9393 26.3143 69.1284 26.3143H59.6469C59.2629 26.3143 58.9118 26.1665 58.6508 25.9404C58.3866 25.7115 58.1378 25.3289 58.1378 24.8308V2.55567C58.1378 2.16262 58.2882 1.58611 58.8364 1.23535C59.4081 0.869684 60.0242 0.993611 60.4308 1.18127L71.3543 6.20375V2.49184C71.3543 1.66543 72.0212 1.00839 72.832 1.00839L82.3136 1.00839C83.124 1.00839 83.7909 1.66543 83.7909 2.49184V24.767C83.7909 25.1559 83.6441 25.7222 83.1149 26.0752C82.5472 26.4534 81.9288 26.3359 81.515 26.1345L70.6061 21.0625ZM56.0893 25.126C56.2456 25.126 56.4019 25.0002 56.4019 24.8115V2.5107C56.4019 2.35343 56.2456 2.19634 56.0893 2.19634H45.7695C45.6132 2.19634 45.4565 2.35343 45.4565 2.5107V24.8115C45.4565 25.0002 45.6132 25.126 45.7695 25.126H56.0893Z"/>
</mask>
<path fill-rule="evenodd" clip-rule="evenodd" d="M29.8156 2.13742L30.6912 4.81434L31.5685 2.13216C31.6235 1.96646 31.7415 1.6642 32.0153 1.40779C32.329 1.11407 32.7135 1.00026 33.0735 1.00026H43.3234C43.667 1.00026 44.2021 1.11083 44.5584 1.60542C44.5611 1.60962 44.5643 1.61383 44.5671 1.61804C44.6139 1.55508 44.6635 1.49847 44.7131 1.44864C44.9388 1.22171 45.3042 1.0001 45.7695 1.0001H56.0893C56.5542 1.0001 56.92 1.2217 57.1457 1.44863C57.3714 1.6756 57.592 2.04315 57.592 2.5107V24.8115C57.592 25.7366 56.8248 26.3223 56.0893 26.3223H45.7695C45.0336 26.3223 44.2664 25.7366 44.2664 24.8115V4.35653L37.1256 25.2927C36.8884 26.1012 36.1262 26.3224 35.7065 26.3224H25.7385C25.5006 26.3224 25.2074 26.2735 24.9236 26.0983C24.6383 25.9221 24.4647 25.6814 24.361 25.4732L24.3259 25.4027L23.1087 21.8633L21.939 25.2927C21.7018 26.1012 20.9396 26.3224 20.5199 26.3224H10.552C10.314 26.3224 10.0208 26.2735 9.73697 26.0983C9.45166 25.9221 9.27815 25.6814 9.17437 25.4731L9.1393 25.4027L1.43744 3.00641C1.31221 2.65784 1.2462 2.10566 1.60626 1.60541C1.96223 1.11083 2.49741 1.00026 2.84084 1.00026H13.1223C13.4823 1.00026 13.8668 1.11406 14.1805 1.40778C14.4542 1.6642 14.5722 1.96646 14.6273 2.13216L14.629 2.13742L15.5046 4.81434L16.3819 2.13216C16.4369 1.96646 16.555 1.6642 16.8288 1.40778C17.1424 1.11406 17.5269 1.00026 17.8869 1.00026L28.3089 1.00026C28.6689 1.00026 29.0534 1.11407 29.367 1.40779C29.6409 1.6642 29.7588 1.96646 29.8139 2.13216L29.8156 2.13742ZM15.5046 8.64447L13.4985 2.51103C13.4358 2.32231 13.3417 2.1965 13.1223 2.1965H2.84084C2.59008 2.1965 2.46469 2.35376 2.55873 2.60539L10.2385 24.9375C10.3012 25.0633 10.3952 25.1262 10.552 25.1262H20.5199C20.6453 25.1262 20.7707 25.0633 20.8021 24.9375L23.1041 18.1882L25.4251 24.9375C25.4878 25.0633 25.5818 25.1262 25.7385 25.1262H35.7065C35.8319 25.1262 35.9573 25.0633 35.9887 24.9375L43.6059 2.60539C43.6999 2.35376 43.5745 2.1965 43.3234 2.1965H33.0735C32.8541 2.1965 32.76 2.32231 32.6974 2.51103L30.6912 8.64447L28.685 2.51103C28.6224 2.32231 28.5283 2.1965 28.3089 2.1965H17.8869C17.6675 2.1965 17.5734 2.32231 17.5107 2.51103L15.5046 8.64447ZM69.416 24.8308C69.416 24.9904 69.2883 25.1181 69.1284 25.1181H59.6469C59.4874 25.1181 59.3279 24.9904 59.3279 24.8308V2.55567C59.3279 2.30037 59.5195 2.07697 59.9345 2.26845L72.2894 7.94894C72.3528 7.98084 72.4167 8.01278 72.4806 7.98084C72.5444 7.94894 72.5444 7.8532 72.5444 7.8213V2.49184C72.5444 2.33228 72.6722 2.20462 72.832 2.20462H82.3136C82.4731 2.20462 82.6008 2.33228 82.6008 2.49184V24.767C82.6008 25.0223 82.4092 25.2457 82.026 25.0542L69.6715 19.3099C69.6077 19.278 69.5438 19.2461 69.4799 19.278C69.416 19.3099 69.416 19.4056 69.416 19.4376V24.8308ZM70.6061 21.0625V24.8308C70.6061 25.6572 69.9393 26.3143 69.1284 26.3143H59.6469C59.2629 26.3143 58.9118 26.1665 58.6508 25.9404C58.3866 25.7115 58.1378 25.3289 58.1378 24.8308V2.55567C58.1378 2.16262 58.2882 1.58611 58.8364 1.23535C59.4081 0.869684 60.0242 0.993611 60.4308 1.18127L71.3543 6.20375V2.49184C71.3543 1.66543 72.0212 1.00839 72.832 1.00839L82.3136 1.00839C83.124 1.00839 83.7909 1.66543 83.7909 2.49184V24.767C83.7909 25.1559 83.6441 25.7222 83.1149 26.0752C82.5472 26.4534 81.9288 26.3359 81.515 26.1345L70.6061 21.0625ZM56.0893 25.126C56.2456 25.126 56.4019 25.0002 56.4019 24.8115V2.5107C56.4019 2.35343 56.2456 2.19634 56.0893 2.19634H45.7695C45.6132 2.19634 45.4565 2.35343 45.4565 2.5107V24.8115C45.4565 25.0002 45.6132 25.126 45.7695 25.126H56.0893Z" fill="black"/>
<path fill-rule="evenodd" clip-rule="evenodd" d="M29.8156 2.13742L30.6912 4.81434L31.5685 2.13216C31.6235 1.96646 31.7415 1.6642 32.0153 1.40779C32.329 1.11407 32.7135 1.00026 33.0735 1.00026H43.3234C43.667 1.00026 44.2021 1.11083 44.5584 1.60542C44.5611 1.60962 44.5643 1.61383 44.5671 1.61804C44.6139 1.55508 44.6635 1.49847 44.7131 1.44864C44.9388 1.22171 45.3042 1.0001 45.7695 1.0001H56.0893C56.5542 1.0001 56.92 1.2217 57.1457 1.44863C57.3714 1.6756 57.592 2.04315 57.592 2.5107V24.8115C57.592 25.7366 56.8248 26.3223 56.0893 26.3223H45.7695C45.0336 26.3223 44.2664 25.7366 44.2664 24.8115V4.35653L37.1256 25.2927C36.8884 26.1012 36.1262 26.3224 35.7065 26.3224H25.7385C25.5006 26.3224 25.2074 26.2735 24.9236 26.0983C24.6383 25.9221 24.4647 25.6814 24.361 25.4732L24.3259 25.4027L23.1087 21.8633L21.939 25.2927C21.7018 26.1012 20.9396 26.3224 20.5199 26.3224H10.552C10.314 26.3224 10.0208 26.2735 9.73697 26.0983C9.45166 25.9221 9.27815 25.6814 9.17437 25.4731L9.1393 25.4027L1.43744 3.00641C1.31221 2.65784 1.2462 2.10566 1.60626 1.60541C1.96223 1.11083 2.49741 1.00026 2.84084 1.00026H13.1223C13.4823 1.00026 13.8668 1.11406 14.1805 1.40778C14.4542 1.6642 14.5722 1.96646 14.6273 2.13216L14.629 2.13742L15.5046 4.81434L16.3819 2.13216C16.4369 1.96646 16.555 1.6642 16.8288 1.40778C17.1424 1.11406 17.5269 1.00026 17.8869 1.00026L28.3089 1.00026C28.6689 1.00026 29.0534 1.11407 29.367 1.40779C29.6409 1.6642 29.7588 1.96646 29.8139 2.13216L29.8156 2.13742ZM15.5046 8.64447L13.4985 2.51103C13.4358 2.32231 13.3417 2.1965 13.1223 2.1965H2.84084C2.59008 2.1965 2.46469 2.35376 2.55873 2.60539L10.2385 24.9375C10.3012 25.0633 10.3952 25.1262 10.552 25.1262H20.5199C20.6453 25.1262 20.7707 25.0633 20.8021 24.9375L23.1041 18.1882L25.4251 24.9375C25.4878 25.0633 25.5818 25.1262 25.7385 25.1262H35.7065C35.8319 25.1262 35.9573 25.0633 35.9887 24.9375L43.6059 2.60539C43.6999 2.35376 43.5745 2.1965 43.3234 2.1965H33.0735C32.8541 2.1965 32.76 2.32231 32.6974 2.51103L30.6912 8.64447L28.685 2.51103C28.6224 2.32231 28.5283 2.1965 28.3089 2.1965H17.8869C17.6675 2.1965 17.5734 2.32231 17.5107 2.51103L15.5046 8.64447ZM69.416 24.8308C69.416 24.9904 69.2883 25.1181 69.1284 25.1181H59.6469C59.4874 25.1181 59.3279 24.9904 59.3279 24.8308V2.55567C59.3279 2.30037 59.5195 2.07697 59.9345 2.26845L72.2894 7.94894C72.3528 7.98084 72.4167 8.01278 72.4806 7.98084C72.5444 7.94894 72.5444 7.8532 72.5444 7.8213V2.49184C72.5444 2.33228 72.6722 2.20462 72.832 2.20462H82.3136C82.4731 2.20462 82.6008 2.33228 82.6008 2.49184V24.767C82.6008 25.0223 82.4092 25.2457 82.026 25.0542L69.6715 19.3099C69.6077 19.278 69.5438 19.2461 69.4799 19.278C69.416 19.3099 69.416 19.4056 69.416 19.4376V24.8308ZM70.6061 21.0625V24.8308C70.6061 25.6572 69.9393 26.3143 69.1284 26.3143H59.6469C59.2629 26.3143 58.9118 26.1665 58.6508 25.9404C58.3866 25.7115 58.1378 25.3289 58.1378 24.8308V2.55567C58.1378 2.16262 58.2882 1.58611 58.8364 1.23535C59.4081 0.869684 60.0242 0.993611 60.4308 1.18127L71.3543 6.20375V2.49184C71.3543 1.66543 72.0212 1.00839 72.832 1.00839L82.3136 1.00839C83.124 1.00839 83.7909 1.66543 83.7909 2.49184V24.767C83.7909 25.1559 83.6441 25.7222 83.1149 26.0752C82.5472 26.4534 81.9288 26.3359 81.515 26.1345L70.6061 21.0625ZM56.0893 25.126C56.2456 25.126 56.4019 25.0002 56.4019 24.8115V2.5107C56.4019 2.35343 56.2456 2.19634 56.0893 2.19634H45.7695C45.6132 2.19634 45.4565 2.35343 45.4565 2.5107V24.8115C45.4565 25.0002 45.6132 25.126 45.7695 25.126H56.0893Z" stroke="black" stroke-width="1.82113" mask="url(#path-1-outside-1_2215_7612)"/>
</svg>
